ffmpeg started on 2025-05-26 at 18:25:33
Report written to "D:\Convert\FFMetrics\reports\ssim_report-6.txt"
Log level: 32
Command line:
ffmpeg -hide_banner -nostdin -i "G:\\\xc0\xed\xe8\xec\xe5\\\xce\xed\xe3\xee\xe8\xed\xe3\xe8\\!_34_\xc2\xe5\xf1\xed\xe0_2024\\DreamCast\\\xc4\xe2\xe5 \xf1\xf2\xee\xf0\xee\xed\xfb \xf1\xfd\xe9\xfe \xf0\xe0\xe4\xe8\xee\\[DC] Seiyuu Radio no Uraomote - 11_Telegram_HEVC.mkv" -i "G:\\\xc0\xed\xe8\xec\xe5\\\xce\xed\xe3\xee\xe8\xed\xe3\xe8\\!_34_\xc2\xe5\xf1\xed\xe0_2024\\DreamCast\\\xc4\xe2\xe5 \xf1\xf2\xee\xf0\xee\xed\xfb \xf1\xfd\xe9\xfe \xf0\xe0\xe4\xe8\xee\\[DC] Seiyuu Radio no Uraomote - 11_Telegram.mp4" -lavfi "[0:v]settb=AVTB,setpts=PTS-STARTPTS,format=pix_fmts=yuv420p10,fps=24000/1001,scale=1920:1080:flags=bicubic[main];[1:v]settb=AVTB,setpts=PTS-STARTPTS,format=pix_fmts=yuv420p,fps=24000/1001,scale=1920:1080:flags=bicubic[ref];[main][ref]ssim=eof_action=endall:stats_file='D\\:/Convert/FFMetrics/logs/ssim_logfile-6.txt'" -f null -
Input #0, matroska,webm, from 'G:\Аниме\Онгоинги\!_34_Весна_2024\DreamCast\Две стороны сэйю радио\[DC] Seiyuu Radio no Uraomote - 11_Telegram_HEVC.mkv':
  Metadata:
    COMPATIBLE_BRANDS: isomiso2avc1mp41
    MAJOR_BRAND     : isom
    MINOR_VERSION   : 512
    ENCODER         : Lavf61.7.100
  Duration: 00:23:46.73, start: -0.021000, bitrate: 1034 kb/s
  Stream #0:0: Video: hevc (Main 10), yuv420p10le(tv, bt709, progressive), 1920x1080 [SAR 1:1 DAR 16:9], 23.98 fps, 23.98 tbr, 1k tbn (default)
      Metadata:
        HANDLER_NAME    : VideoHandler
        VENDOR_ID       : [0][0][0][0]
        ENCODER         : Lavc61.19.100 libx265
        BPS             : 837854
        DURATION        : 00:23:46.549708333
        NUMBER_OF_FRAMES: 34203
        NUMBER_OF_BYTES : 149405078
        _STATISTICS_WRITING_APP: mkvpropedit v66.0.0 ('Josie') 64-bit
        _STATISTICS_WRITING_DATE_UTC: 2025-05-26 09:36:38
        _STATISTICS_TAGS: BPS DURATION NUMBER_OF_FRAMES NUMBER_OF_BYTES
  Stream #0:1: Audio: aac (LC), 48000 Hz, stereo, fltp (default)
      Metadata:
        HANDLER_NAME    : SoundHandler
        VENDOR_ID       : [0][0][0][0]
        ENCODER         : Lavc61.19.100 aac
        BPS             : 192942
        DURATION        : 00:23:46.730000000
        NUMBER_OF_FRAMES: 66879
        NUMBER_OF_BYTES : 34409577
        _STATISTICS_WRITING_APP: mkvpropedit v66.0.0 ('Josie') 64-bit
        _STATISTICS_WRITING_DATE_UTC: 2025-05-26 09:36:38
        _STATISTICS_TAGS: BPS DURATION NUMBER_OF_FRAMES NUMBER_OF_BYTES
Input #1, mov,mp4,m4a,3gp,3g2,mj2, from 'G:\Аниме\Онгоинги\!_34_Весна_2024\DreamCast\Две стороны сэйю радио\[DC] Seiyuu Radio no Uraomote - 11_Telegram.mp4':
  Metadata:
    major_brand     : isom
    minor_version   : 512
    compatible_brands: isomiso2avc1mp41
    encoder         : Lavf60.16.100
  Duration: 00:23:46.68, start: 0.000000, bitrate: 3688 kb/s
  Stream #1:0[0x1](und): Video: h264 (High) (avc1 / 0x31637661), yuv420p(tv, bt709, progressive), 1920x1080 [SAR 1:1 DAR 16:9], 3541 kb/s, 23.98 fps, 23.98 tbr, 24k tbn (default)
      Metadata:
        handler_name    : VideoHandler
        vendor_id       : [0][0][0][0]
        encoder         : Lavc60.31.102 h264_qsv
  Stream #1:1[0x2](und): Audio: aac (HE-AACv2) (mp4a / 0x6134706D), 48000 Hz, stereo, fltp, 144 kb/s (default)
      Metadata:
        handler_name    : SoundHandler
        vendor_id       : [0][0][0][0]
Stream mapping:
  Stream #0:0 (hevc) -> settb:default
  Stream #1:0 (h264) -> settb:default
  ssim:default -> Stream #0:0 (wrapped_avframe)
  Stream #0:1 -> #0:1 (aac (native) -> pcm_s16le (native))
Output #0, null, to 'pipe:':
  Metadata:
    COMPATIBLE_BRANDS: isomiso2avc1mp41
    MAJOR_BRAND     : isom
    MINOR_VERSION   : 512
    encoder         : Lavf61.7.100
  Stream #0:0: Video: wrapped_avframe, yuv420p10le(tv, bt709, progressive), 1920x1080 [SAR 1:1 DAR 16:9], q=2-31, 200 kb/s, 23.98 fps, 23.98 tbn
      Metadata:
        encoder         : Lavc61.19.100 wrapped_avframe
  Stream #0:1: Audio: pcm_s16le, 48000 Hz, stereo, s16, 1536 kb/s (default)
      Metadata:
        HANDLER_NAME    : SoundHandler
        VENDOR_ID       : [0][0][0][0]
        _STATISTICS_TAGS: BPS DURATION NUMBER_OF_FRAMES NUMBER_OF_BYTES
        BPS             : 192942
        DURATION        : 00:23:46.730000000
        NUMBER_OF_FRAMES: 66879
        NUMBER_OF_BYTES : 34409577
        _STATISTICS_WRITING_APP: mkvpropedit v66.0.0 ('Josie') 64-bit
        _STATISTICS_WRITING_DATE_UTC: 2025-05-26 09:36:38
        encoder         : Lavc61.19.100 pcm_s16le
frame=  178 fps=0.0 q=-0.0 size=N/A time=00:00:07.42 bitrate=N/A speed=14.6x    frame=  442 fps=429 q=-0.0 size=N/A time=00:00:18.43 bitrate=N/A speed=17.9x    frame=  709 fps=461 q=-0.0 size=N/A time=00:00:29.57 bitrate=N/A speed=19.2x    frame=  993 fps=482 q=-0.0 size=N/A time=00:00:41.41 bitrate=N/A speed=20.1x    frame= 1233 fps=480 q=-0.0 size=N/A time=00:00:51.42 bitrate=N/A speed=  20x    frame= 1522 fps=493 q=-0.0 size=N/A time=00:01:03.48 bitrate=N/A speed=20.5x    frame= 1801 fps=500 q=-0.0 size=N/A time=00:01:15.11 bitrate=N/A speed=20.9x    frame= 2072 fps=503 q=-0.0 size=N/A time=00:01:26.41 bitrate=N/A speed=  21x    frame= 2323 fps=502 q=-0.0 size=N/A time=00:01:36.88 bitrate=N/A speed=20.9x    frame= 2546 fps=494 q=-0.0 size=N/A time=00:01:46.18 bitrate=N/A speed=20.6x    frame= 2818 fps=497 q=-0.0 size=N/A time=00:01:57.53 bitrate=N/A speed=20.7x    frame= 3096 fps=501 q=-0.0 size=N/A time=00:02:09.12 bitrate=N/A speed=20.9x    frame= 3359 fps=501 q=-0.0 size=N/A time=00:02:20.09 bitrate=N/A speed=20.9x    frame= 3584 fps=497 q=-0.0 size=N/A time=00:02:29.48 bitrate=N/A speed=20.7x    frame= 3824 fps=495 q=-0.0 size=N/A time=00:02:39.49 bitrate=N/A speed=20.6x    frame= 4058 fps=492 q=-0.0 size=N/A time=00:02:49.25 bitrate=N/A speed=20.5x    frame= 4249 fps=485 q=-0.0 size=N/A time=00:02:57.21 bitrate=N/A speed=20.2x    frame= 4358 fps=470 q=-0.0 size=N/A time=00:03:01.76 bitrate=N/A speed=19.6x    frame= 4563 fps=466 q=-0.0 size=N/A time=00:03:10.31 bitrate=N/A speed=19.4x    frame= 4761 fps=462 q=-0.0 size=N/A time=00:03:18.57 bitrate=N/A speed=19.3x    frame= 4985 fps=461 q=-0.0 size=N/A time=00:03:27.91 bitrate=N/A speed=19.2x    frame= 5216 fps=460 q=-0.0 size=N/A time=00:03:37.55 bitrate=N/A speed=19.2x    frame= 5412 fps=457 q=-0.0 size=N/A time=00:03:45.72 bitrate=N/A speed=  19x    frame= 5683 fps=459 q=-0.0 size=N/A time=00:03:57.02 bitrate=N/A speed=19.2x    frame= 5965 fps=463 q=-0.0 size=N/A time=00:04:08.79 bitrate=N/A speed=19.3x    frame= 6248 fps=466 q=-0.0 size=N/A time=00:04:20.59 bitrate=N/A speed=19.4x    frame= 6491 fps=467 q=-0.0 size=N/A time=00:04:30.72 bitrate=N/A speed=19.5x    frame= 6753 fps=468 q=-0.0 size=N/A time=00:04:41.65 bitrate=N/A speed=19.5x    frame= 7025 fps=470 q=-0.0 size=N/A time=00:04:53.00 bitrate=N/A speed=19.6x    frame= 7268 fps=470 q=-0.0 size=N/A time=00:05:03.13 bitrate=N/A speed=19.6x    frame= 7546 fps=472 q=-0.0 size=N/A time=00:05:14.73 bitrate=N/A speed=19.7x    frame= 7805 fps=473 q=-0.0 size=N/A time=00:05:25.53 bitrate=N/A speed=19.7x    frame= 8082 fps=475 q=-0.0 size=N/A time=00:05:37.08 bitrate=N/A speed=19.8x    frame= 8357 fps=477 q=-0.0 size=N/A time=00:05:48.55 bitrate=N/A speed=19.9x    frame= 8631 fps=478 q=-0.0 size=N/A time=00:05:59.98 bitrate=N/A speed=19.9x    frame= 8890 fps=479 q=-0.0 size=N/A time=00:06:10.78 bitrate=N/A speed=  20x    frame= 9181 fps=481 q=-0.0 size=N/A time=00:06:22.92 bitrate=N/A speed=20.1x    frame= 9423 fps=481 q=-0.0 size=N/A time=00:06:33.01 bitrate=N/A speed=20.1x    frame= 9686 fps=482 q=-0.0 size=N/A time=00:06:43.98 bitrate=N/A speed=20.1x    frame= 9938 fps=482 q=-0.0 size=N/A time=00:06:54.49 bitrate=N/A speed=20.1x    frame=10198 fps=482 q=-0.0 size=N/A time=00:07:05.34 bitrate=N/A speed=20.1x    frame=10418 fps=481 q=-0.0 size=N/A time=00:07:14.51 bitrate=N/A speed=20.1x    frame=10640 fps=480 q=-0.0 size=N/A time=00:07:23.77 bitrate=N/A speed=  20x    frame=10902 fps=481 q=-0.0 size=N/A time=00:07:34.70 bitrate=N/A speed=20.1x    frame=11182 fps=482 q=-0.0 size=N/A time=00:07:46.38 bitrate=N/A speed=20.1x    frame=11457 fps=483 q=-0.0 size=N/A time=00:07:57.85 bitrate=N/A speed=20.1x    frame=11727 fps=484 q=-0.0 size=N/A time=00:08:09.11 bitrate=N/A speed=20.2x    frame=12018 fps=486 q=-0.0 size=N/A time=00:08:21.25 bitrate=N/A speed=20.3x    frame=12291 fps=487 q=-0.0 size=N/A time=00:08:32.67 bitrate=N/A speed=20.3x    frame=12573 fps=488 q=-0.0 size=N/A time=00:08:44.39 bitrate=N/A speed=20.3x    frame=12839 fps=488 q=-0.0 size=N/A time=00:08:55.49 bitrate=N/A speed=20.4x    frame=13108 fps=489 q=-0.0 size=N/A time=00:09:06.71 bitrate=N/A speed=20.4x    frame=13360 fps=489 q=-0.0 size=N/A time=00:09:17.22 bitrate=N/A speed=20.4x    frame=13650 fps=490 q=-0.0 size=N/A time=00:09:29.31 bitrate=N/A speed=20.4x    frame=13940 fps=492 q=-0.0 size=N/A time=00:09:41.41 bitrate=N/A speed=20.5x    frame=14213 fps=492 q=-0.0 size=N/A time=00:09:52.80 bitrate=N/A speed=20.5x    frame=14490 fps=493 q=-0.0 size=N/A time=00:10:04.35 bitrate=N/A speed=20.6x    frame=14729 fps=493 q=-0.0 size=N/A time=00:10:14.32 bitrate=N/A speed=20.5x    frame=14995 fps=493 q=-0.0 size=N/A time=00:10:25.41 bitrate=N/A speed=20.6x    frame=15257 fps=493 q=-0.0 size=N/A time=00:10:36.34 bitrate=N/A speed=20.6x    frame=15515 fps=493 q=-0.0 size=N/A time=00:10:47.10 bitrate=N/A speed=20.6x    frame=15791 fps=494 q=-0.0 size=N/A time=00:10:58.61 bitrate=N/A speed=20.6x    frame=16070 fps=495 q=-0.0 size=N/A time=00:11:10.25 bitrate=N/A speed=20.6x    frame=16357 fps=496 q=-0.0 size=N/A time=00:11:22.22 bitrate=N/A speed=20.7x    frame=16642 fps=497 q=-0.0 size=N/A time=00:11:34.11 bitrate=N/A speed=20.7x    frame=16937 fps=498 q=-0.0 size=N/A time=00:11:46.41 bitrate=N/A speed=20.8x    frame=17217 fps=498 q=-0.0 size=N/A time=00:11:58.09 bitrate=N/A speed=20.8x    frame=17514 fps=500 q=-0.0 size=N/A time=00:12:10.47 bitrate=N/A speed=20.8x    frame=17765 fps=499 q=-0.0 size=N/A time=00:12:20.94 bitrate=N/A speed=20.8x    frame=18043 fps=500 q=-0.0 size=N/A time=00:12:32.54 bitrate=N/A speed=20.9x    frame=18324 fps=500 q=-0.0 size=N/A time=00:12:44.26 bitrate=N/A speed=20.9x    frame=18596 fps=501 q=-0.0 size=N/A time=00:12:55.60 bitrate=N/A speed=20.9x    frame=18828 fps=500 q=-0.0 size=N/A time=00:13:05.28 bitrate=N/A speed=20.9x    frame=19036 fps=499 q=-0.0 size=N/A time=00:13:13.95 bitrate=N/A speed=20.8x    frame=19260 fps=498 q=-0.0 size=N/A time=00:13:23.30 bitrate=N/A speed=20.8x    frame=19488 fps=497 q=-0.0 size=N/A time=00:13:32.81 bitrate=N/A speed=20.7x    frame=19703 fps=496 q=-0.0 size=N/A time=00:13:41.77 bitrate=N/A speed=20.7x    frame=19897 fps=495 q=-0.0 size=N/A time=00:13:49.87 bitrate=N/A speed=20.6x    frame=20117 fps=494 q=-0.0 size=N/A time=00:13:59.04 bitrate=N/A speed=20.6x    frame=20343 fps=493 q=-0.0 size=N/A time=00:14:08.47 bitrate=N/A speed=20.6x    frame=20555 fps=492 q=-0.0 size=N/A time=00:14:17.31 bitrate=N/A speed=20.5x    frame=20761 fps=491 q=-0.0 size=N/A time=00:14:25.90 bitrate=N/A speed=20.5x    frame=20972 fps=490 q=-0.0 size=N/A time=00:14:34.70 bitrate=N/A speed=20.4x    frame=21173 fps=489 q=-0.0 size=N/A time=00:14:43.09 bitrate=N/A speed=20.4x    frame=21385 fps=488 q=-0.0 size=N/A time=00:14:51.93 bitrate=N/A speed=20.4x    frame=21584 fps=487 q=-0.0 size=N/A time=00:15:00.23 bitrate=N/A speed=20.3x    frame=21797 fps=486 q=-0.0 size=N/A time=00:15:09.11 bitrate=N/A speed=20.3x    frame=22019 fps=485 q=-0.0 size=N/A time=00:15:18.37 bitrate=N/A speed=20.2x    frame=22222 fps=484 q=-0.0 size=N/A time=00:15:26.84 bitrate=N/A speed=20.2x    frame=22429 fps=483 q=-0.0 size=N/A time=00:15:35.47 bitrate=N/A speed=20.2x    frame=22646 fps=483 q=-0.0 size=N/A time=00:15:44.52 bitrate=N/A speed=20.1x    frame=22860 fps=482 q=-0.0 size=N/A time=00:15:53.45 bitrate=N/A speed=20.1x    frame=23076 fps=481 q=-0.0 size=N/A time=00:16:02.46 bitrate=N/A speed=20.1x    frame=23276 fps=480 q=-0.0 size=N/A time=00:16:10.80 bitrate=N/A speed=  20x    frame=23483 fps=479 q=-0.0 size=N/A time=00:16:19.43 bitrate=N/A speed=  20x    frame=23684 fps=479 q=-0.0 size=N/A time=00:16:27.82 bitrate=N/A speed=  20x    frame=23905 fps=478 q=-0.0 size=N/A time=00:16:37.03 bitrate=N/A speed=19.9x    frame=24104 fps=477 q=-0.0 size=N/A time=00:16:45.33 bitrate=N/A speed=19.9x    frame=24330 fps=477 q=-0.0 size=N/A time=00:16:54.76 bitrate=N/A speed=19.9x    frame=24536 fps=476 q=-0.0 size=N/A time=00:17:03.35 bitrate=N/A speed=19.9x    frame=24765 fps=476 q=-0.0 size=N/A time=00:17:12.90 bitrate=N/A speed=19.8x    frame=24986 fps=475 q=-0.0 size=N/A time=00:17:22.12 bitrate=N/A speed=19.8x    frame=25213 fps=475 q=-0.0 size=N/A time=00:17:31.59 bitrate=N/A speed=19.8x    frame=25441 fps=474 q=-0.0 size=N/A time=00:17:41.10 bitrate=N/A speed=19.8x    frame=25697 fps=475 q=-0.0 size=N/A time=00:17:51.77 bitrate=N/A speed=19.8x    frame=25974 fps=475 q=-0.0 size=N/A time=00:18:03.33 bitrate=N/A speed=19.8x    frame=26235 fps=476 q=-0.0 size=N/A time=00:18:14.21 bitrate=N/A speed=19.8x    frame=26474 fps=475 q=-0.0 size=N/A time=00:18:24.18 bitrate=N/A speed=19.8x    frame=26703 fps=475 q=-0.0 size=N/A time=00:18:33.73 bitrate=N/A speed=19.8x    frame=26955 fps=475 q=-0.0 size=N/A time=00:18:44.24 bitrate=N/A speed=19.8x    frame=27213 fps=475 q=-0.0 size=N/A time=00:18:55.00 bitrate=N/A speed=19.8x    frame=27489 fps=476 q=-0.0 size=N/A time=00:19:06.52 bitrate=N/A speed=19.8x    frame=27756 fps=476 q=-0.0 size=N/A time=00:19:17.65 bitrate=N/A speed=19.9x    frame=28017 fps=477 q=-0.0 size=N/A time=00:19:28.54 bitrate=N/A speed=19.9x    frame=28286 fps=477 q=-0.0 size=N/A time=00:19:39.76 bitrate=N/A speed=19.9x    frame=28546 fps=477 q=-0.0 size=N/A time=00:19:50.60 bitrate=N/A speed=19.9x    frame=28834 fps=478 q=-0.0 size=N/A time=00:20:02.61 bitrate=N/A speed=19.9x    frame=29106 fps=478 q=-0.0 size=N/A time=00:20:13.96 bitrate=N/A speed=  20x    frame=29413 fps=479 q=-0.0 size=N/A time=00:20:26.76 bitrate=N/A speed=  20x    frame=29682 fps=480 q=-0.0 size=N/A time=00:20:37.98 bitrate=N/A speed=  20x    frame=29958 fps=480 q=-0.0 size=N/A time=00:20:49.49 bitrate=N/A speed=  20x    frame=30232 fps=481 q=-0.0 size=N/A time=00:21:00.92 bitrate=N/A speed=  20x    frame=30512 fps=481 q=-0.0 size=N/A time=00:21:12.60 bitrate=N/A speed=20.1x    frame=30792 fps=482 q=-0.0 size=N/A time=00:21:24.28 bitrate=N/A speed=20.1x    frame=31064 fps=482 q=-0.0 size=N/A time=00:21:35.62 bitrate=N/A speed=20.1x    frame=31343 fps=482 q=-0.0 size=N/A time=00:21:47.26 bitrate=N/A speed=20.1x    frame=31619 fps=483 q=-0.0 size=N/A time=00:21:58.77 bitrate=N/A speed=20.1x    frame=31889 fps=483 q=-0.0 size=N/A time=00:22:10.03 bitrate=N/A speed=20.1x    frame=32137 fps=483 q=-0.0 size=N/A time=00:22:20.38 bitrate=N/A speed=20.1x    frame=32347 fps=482 q=-0.0 size=N/A time=00:22:29.13 bitrate=N/A speed=20.1x    frame=32562 fps=482 q=-0.0 size=N/A time=00:22:38.10 bitrate=N/A speed=20.1x    frame=32782 fps=481 q=-0.0 size=N/A time=00:22:47.28 bitrate=N/A speed=20.1x    frame=33007 fps=481 q=-0.0 size=N/A time=00:22:56.66 bitrate=N/A speed=20.1x    frame=33190 fps=480 q=-0.0 size=N/A time=00:23:04.29 bitrate=N/A speed=  20x    frame=33387 fps=479 q=-0.0 size=N/A time=00:23:12.51 bitrate=N/A speed=  20x    frame=33619 fps=479 q=-0.0 size=N/A time=00:23:22.19 bitrate=N/A speed=  20x    frame=33828 fps=479 q=-0.0 size=N/A time=00:23:30.90 bitrate=N/A speed=  20x    frame=34055 fps=478 q=-0.0 size=N/A time=00:23:40.37 bitrate=N/A speed=19.9x    [Parsed_ssim_10 @ 0000018d9e8e7dc0] SSIM Y:0.993599 (21.937279) U:0.993685 (21.996526) V:0.994274 (22.421153) All:0.993726 (22.024267)
[out#0/null @ 0000018d91433b80] video:14697KiB audio:267516KiB subtitle:0KiB other streams:0KiB global headers:0KiB muxing overhead: unknown
frame=34203 fps=478 q=-0.0 Lsize=N/A time=00:23:46.55 bitrate=N/A speed=  20x    
